<!-- Generated by IcoMoon.io -->
<svg version="1.1" xmlns="http://www.w3.org/2000/svg" width="1024" height="1024" viewBox="0 0 1024 1024">
<g id="icomoon-ignore">
</g>
<path fill="#000" d="M64 160c0-25.461 10.114-49.879 28.118-67.882s42.421-28.118 67.882-28.118h192c25.459 0 49.878 10.114 67.882 28.118s28.118 42.421 28.118 67.882v192c0 25.459-10.115 49.878-28.118 67.882s-42.422 28.118-67.882 28.118h-192c-25.461 0-49.879-10.115-67.882-28.118s-28.118-42.422-28.118-67.882v-192zM160 128c-8.487 0-16.626 3.372-22.628 9.372s-9.372 14.14-9.372 22.628v192c0 8.486 3.372 16.627 9.372 22.627s14.14 9.373 22.628 9.373h192c8.486 0 16.627-3.373 22.627-9.373s9.373-14.141 9.373-22.627v-192c0-8.487-3.373-16.626-9.373-22.628s-14.141-9.372-22.627-9.372h-192zM576 160c0-25.461 10.115-49.879 28.118-67.882s42.422-28.118 67.882-28.118h192c25.459 0 49.878 10.114 67.882 28.118s28.118 42.421 28.118 67.882v192c0 25.459-10.115 49.878-28.118 67.882s-42.422 28.118-67.882 28.118h-192c-25.459 0-49.878-10.115-67.882-28.118s-28.118-42.422-28.118-67.882v-192zM672 128c-8.486 0-16.627 3.372-22.627 9.372s-9.373 14.14-9.373 22.628v192c0 8.486 3.373 16.627 9.373 22.627s14.141 9.373 22.627 9.373h192c8.486 0 16.627-3.373 22.627-9.373s9.373-14.141 9.373-22.627v-192c0-8.487-3.373-16.626-9.373-22.628s-14.141-9.372-22.627-9.372h-192zM64 672c0-25.459 10.114-49.878 28.118-67.882s42.421-28.118 67.882-28.118h192c25.459 0 49.878 10.115 67.882 28.118s28.118 42.422 28.118 67.882v192c0 25.459-10.115 49.878-28.118 67.882s-42.422 28.118-67.882 28.118h-192c-25.461 0-49.879-10.115-67.882-28.118s-28.118-42.422-28.118-67.882v-192zM160 640c-8.487 0-16.626 3.373-22.628 9.373s-9.372 14.141-9.372 22.627v192c0 8.486 3.372 16.627 9.372 22.627s14.14 9.373 22.628 9.373h192c8.486 0 16.627-3.373 22.627-9.373s9.373-14.141 9.373-22.627v-192c0-8.486-3.373-16.627-9.373-22.627s-14.141-9.373-22.627-9.373h-192zM576 672c0-25.459 10.115-49.878 28.118-67.882s42.422-28.118 67.882-28.118h192c25.459 0 49.878 10.115 67.882 28.118s28.118 42.422 28.118 67.882v192c0 25.459-10.115 49.878-28.118 67.882s-42.422 28.118-67.882 28.118h-192c-25.459 0-49.878-10.115-67.882-28.118s-28.118-42.422-28.118-67.882v-192zM672 640c-8.486 0-16.627 3.373-22.627 9.373s-9.373 14.141-9.373 22.627v192c0 8.486 3.373 16.627 9.373 22.627s14.141 9.373 22.627 9.373h192c8.486 0 16.627-3.373 22.627-9.373s9.373-14.141 9.373-22.627v-192c0-8.486-3.373-16.627-9.373-22.627s-14.141-9.373-22.627-9.373h-192z"></path>
</svg>
